<?xml version="1.0" encoding="utf-8"?>
<!-- Generator: Adobe Illustrator 16.0.3, SVG Export Plug-In . SVG Version: 6.00 Build 0)  -->
<!DOCTYPE svg PUBLIC "-//W3C//DTD SVG 1.1//EN" "http://www.w3.org/Graphics/SVG/1.1/DTD/svg11.dtd">
<svg version="1.1" xmlns="http://www.w3.org/2000/svg" xmlns:xlink="http://www.w3.org/1999/xlink" x="0px" y="0px" width="313px"
	 height="72px" viewBox="0 0 313 72" enable-background="new 0 0 313 72" xml:space="preserve">
<g id="ガイド-コンテンツ幅" display="none">
</g>
<g id="背景-_x23_fff" display="none">
</g>
<g id="ナビゲーション" display="none">
</g>
<g id="ヘッダー">
	<g>
		<g>
			<g>
				<rect x="1" y="37" fill="#AFAFB0" width="34" height="34"/>
				<path fill="#FFFFFF" d="M37,72H0V35h37V72z M3,69h31V38H3V69z"/>
			</g>
			<g>
				<rect x="35" y="37" fill="#FFFFFF" width="35" height="34"/>
				<path fill="#AFAFB0" d="M72,72H34V35h38V72z M37,69h32V38H37V69z"/>
			</g>
			<g>
				<rect x="35" y="2" fill="#FFFFFF" width="35" height="35"/>
				<path fill="#AFAFB0" d="M72,38H34V0h38V38z M37,35h32V3H37V35z"/>
			</g>
			<g>
				<rect x="1" y="2" fill="#FFFFFF" width="34" height="35"/>
				<path fill="#AFAFB0" d="M37,38H0V0h37V38z M3,35h31V3H3V35z"/>
			</g>
			<g>
				<path fill="#AFAFB0" d="M35.697,1.765v4.277l-8.832,29.89h-5.1l8.836-29.608h-8.697v4.912h-4.791v-9.47H35.697z"/>
			</g>
			<g>
				<path fill="#AFAFB0" d="M60.631,36.284c-3.26,0-5.697-0.872-7.32-2.619c-1.621-1.748-2.43-4.109-2.43-7.086V11.047
					c0-3.024,0.818-5.396,2.465-7.12c1.645-1.724,4.072-2.584,7.285-2.584c3.229,0,5.66,0.857,7.297,2.572
					c1.637,1.715,2.455,4.092,2.455,7.132v15.532c0,3.024-0.818,5.397-2.455,7.12C66.291,35.423,63.859,36.284,60.631,36.284z
					 M60.631,31.724c1.754,0,3.021-0.457,3.793-1.373c0.779-0.917,1.164-2.175,1.164-3.773V11.047c0-1.614-0.385-2.875-1.164-3.783
					C63.652,6.354,62.385,5.9,60.631,5.9s-3.018,0.453-3.795,1.363c-0.775,0.908-1.162,2.169-1.162,3.783v15.532
					c0,1.598,0.387,2.856,1.162,3.773C57.613,31.267,58.877,31.724,60.631,31.724z"/>
			</g>
			<g>
				<path fill="#AFAFB0" d="M46.996,70.657c-1.926,0-3.615-0.347-5.061-1.045c-1.453-0.696-2.615-1.702-3.494-3.02
					C37.564,65.278,37,63.678,36.752,61.8h4.887c0.217,1.471,0.795,2.549,1.74,3.231c0.939,0.682,2.146,1.022,3.617,1.022
					c1.582,0,2.811-0.423,3.689-1.27c0.877-0.847,1.316-2.035,1.316-3.572v-1.034c0-1.708-0.416-3.026-1.246-3.959
					c-0.832-0.932-2.006-1.398-3.525-1.398h-2.42v-4.559h2.42c1.348,0,2.385-0.399,3.117-1.197c0.727-0.799,1.09-1.926,1.09-3.384
					v-1.057c0-1.347-0.387-2.389-1.164-3.125c-0.775-0.736-1.875-1.104-3.301-1.104c-1.209,0-2.229,0.34-3.066,1.021
					c-0.838,0.682-1.414,1.76-1.727,3.231h-4.863c0.484-2.819,1.568-5,3.254-6.545c1.684-1.542,3.816-2.313,6.402-2.313
					c2.945,0,5.223,0.774,6.838,2.326c1.611,1.55,2.422,3.736,2.422,6.555v0.563c0,1.708-0.463,3.193-1.389,4.454
					c-0.922,1.26-2.234,2.189-3.922,2.785c1.863,0.392,3.309,1.305,4.336,2.737c1.025,1.433,1.537,3.253,1.537,5.462v0.564
					c0,2.992-0.855,5.31-2.561,6.956C52.529,69.836,50.115,70.657,46.996,70.657z"/>
			</g>
		</g>
		<g>
			<path fill="#FFFFFF" d="M82.275,45.782l7.197-19.524h2.338l7.195,19.524h-2.953l-5.41-15.751L85.23,45.782H82.275z
				 M85.592,41.498v-2.606h10.277v2.606H85.592z"/>
			<path fill="#FFFFFF" d="M101.959,45.782V26.245h2.742v19.537H101.959z M103.156,37.524v-2.605h6.662
				c0.793,0,1.432-0.277,1.916-0.833c0.486-0.555,0.727-1.289,0.727-2.201c0-0.913-0.24-1.647-0.727-2.203
				c-0.484-0.554-1.123-0.833-1.916-0.833h-6.662v-2.604h6.551c1.137,0,2.135,0.235,2.982,0.705c0.85,0.469,1.51,1.125,1.98,1.965
				c0.469,0.843,0.703,1.833,0.703,2.97c0,1.127-0.236,2.114-0.709,2.961c-0.477,0.846-1.135,1.504-1.98,1.973
				c-0.846,0.471-1.84,0.706-2.977,0.706H103.156z M112.943,45.782l-4.471-8.862l2.727-0.617l4.992,9.479H112.943z"/>
			<path fill="#FFFFFF" d="M117.199,28.862v-2.604h13.779v2.604H117.199z M122.719,45.782V27.857h2.74v17.925H122.719z"/>
			<path fill="#FFFFFF" d="M138.617,37.201c-1.109,0-1.973,0.277-2.584,0.833c-0.613,0.555-0.922,1.338-0.922,2.35
				c0,0.994,0.326,1.766,0.977,2.316c0.648,0.551,1.564,0.825,2.746,0.825c1.689,0,3-0.667,3.936-2
				c0.928-1.332,1.393-3.214,1.393-5.641h2.605c0,2.141-0.332,3.963-1.008,5.466c-0.672,1.504-1.643,2.653-2.914,3.444
				c-1.27,0.792-2.809,1.189-4.619,1.189c-1.834,0-3.256-0.489-4.26-1.464c-1.01-0.976-1.512-2.355-1.512-4.137
				c0-1.602,0.441-2.883,1.324-3.84c0.879-0.958,2.117-1.509,3.707-1.651L138.617,37.201z M144.756,45.782l-7.441-7.762
				c-0.922-0.967-1.645-2.001-2.168-3.109c-0.525-1.104-0.785-2.252-0.785-3.442c0-1.711,0.457-3.033,1.369-3.969
				c0.912-0.935,2.203-1.403,3.867-1.403c1.656,0,2.938,0.451,3.846,1.351c0.908,0.898,1.363,2.173,1.363,3.819v0.268h-2.74v-0.268
				c0-0.797-0.213-1.411-0.643-1.847c-0.432-0.434-1.039-0.651-1.826-0.651s-1.402,0.234-1.84,0.705
				c-0.439,0.47-0.658,1.136-0.658,1.995c0,0.788,0.193,1.603,0.574,2.444c0.375,0.84,0.92,1.633,1.629,2.376l8.928,9.493H144.756z"
				/>
			<path fill="#FFFFFF" d="M157.631,35.269h6.768v3.411c0,1.468-0.287,2.75-0.854,3.847c-0.57,1.097-1.363,1.946-2.385,2.551
				s-2.217,0.907-3.594,0.907c-1.393,0-2.607-0.283-3.641-0.854c-1.039-0.568-1.848-1.369-2.418-2.403
				c-0.574-1.034-0.857-2.239-0.857-3.618v-5.762c0-1.467,0.281-2.747,0.852-3.839c0.568-1.091,1.363-1.939,2.381-2.544
				c1.021-0.605,2.225-0.907,3.602-0.907c1.135,0,2.168,0.242,3.105,0.726c0.938,0.482,1.721,1.158,2.355,2.027
				c0.637,0.868,1.066,1.884,1.293,3.047h-2.965c-0.252-1.011-0.74-1.784-1.467-2.321c-0.727-0.538-1.504-0.808-2.322-0.808
				c-1.219,0-2.197,0.425-2.93,1.27c-0.734,0.847-1.1,1.963-1.1,3.35v5.762c0,1.271,0.375,2.289,1.127,3.055
				c0.75,0.767,1.748,1.148,2.984,1.148c1.213,0,2.191-0.403,2.926-1.209c0.732-0.806,1.1-1.928,1.1-3.369v-0.848h-3.961V35.269z"/>
			<path fill="#FFFFFF" d="M166.949,45.782l7.197-19.524h2.336l7.199,19.524h-2.957l-5.41-15.751l-5.412,15.751H166.949z
				 M170.266,41.498v-2.606h10.273v2.606H170.266z"/>
			<path fill="#FFFFFF" d="M186.633,45.782V26.258h2.738v19.524H186.633z M188.004,45.782v-2.604h11.17v2.604H188.004z"/>
			<path fill="#FFFFFF" d="M202.396,45.782V26.258h2.74v19.524H202.396z M203.77,45.782v-2.604h11.168v2.604H203.77z"/>
			<path fill="#FFFFFF" d="M218.16,45.782V26.258h2.738v19.524H218.16z M219.49,28.862v-2.604h11.213v2.604H219.49z M219.49,37.39
				v-2.605h9.736v2.605H219.49z M219.49,45.782v-2.604h11.213v2.604H219.49z"/>
			<path fill="#FFFFFF" d="M234.598,45.782V26.245h2.738v19.537H234.598z M235.795,37.524v-2.605h6.658
				c0.797,0,1.438-0.277,1.918-0.833c0.484-0.555,0.727-1.289,0.727-2.201c0-0.913-0.242-1.647-0.727-2.203
				c-0.48-0.554-1.121-0.833-1.918-0.833h-6.658v-2.604h6.551c1.133,0,2.129,0.235,2.98,0.705c0.85,0.469,1.508,1.125,1.979,1.965
				c0.469,0.843,0.707,1.833,0.707,2.97c0,1.127-0.24,2.114-0.715,2.961c-0.475,0.846-1.133,1.504-1.979,1.973
				c-0.846,0.471-1.84,0.706-2.973,0.706H235.795z M245.582,45.782l-4.473-8.862l2.723-0.617l4.996,9.479H245.582z"/>
			<path fill="#FFFFFF" d="M264.34,26.258l-5.947,11.589v7.936h-2.74v-7.936l-5.947-11.589h3.047l4.27,8.81l4.271-8.81H264.34z"/>
			<path fill="#FFFFFF" d="M283.42,26.258v2.444l-5.049,17.08h-2.912l5.043-16.92h-4.965v2.808h-2.742v-5.412H283.42z"/>
			<path fill="#FFFFFF" d="M292.754,45.984c-1.865,0-3.26-0.5-4.189-1.499c-0.924-0.998-1.387-2.348-1.387-4.048v-8.876
				c0-1.728,0.469-3.083,1.41-4.066c0.939-0.986,2.328-1.479,4.166-1.479s3.232,0.49,4.166,1.473
				c0.936,0.979,1.404,2.336,1.404,4.073v8.876c0,1.728-0.469,3.084-1.404,4.068C295.986,45.492,294.592,45.984,292.754,45.984z
				 M292.754,43.377c1,0,1.723-0.261,2.164-0.783c0.443-0.524,0.67-1.243,0.67-2.156v-8.876c0-0.922-0.227-1.643-0.67-2.161
				c-0.441-0.519-1.164-0.779-2.164-0.779c-1.002,0-1.73,0.261-2.172,0.779s-0.662,1.239-0.662,2.161v8.876
				c0,0.913,0.221,1.632,0.662,2.156C291.023,43.116,291.752,43.377,292.754,43.377z"/>
			<path fill="#FFFFFF" d="M307.404,45.984c-1.105,0-2.07-0.2-2.895-0.6c-0.832-0.397-1.494-0.973-1.996-1.725
				s-0.826-1.665-0.971-2.738h2.795c0.129,0.841,0.459,1.456,0.994,1.846c0.537,0.387,1.227,0.584,2.072,0.584
				c0.9,0,1.6-0.24,2.102-0.725c0.504-0.484,0.758-1.163,0.758-2.041v-0.591c0-0.976-0.24-1.73-0.715-2.264
				c-0.477-0.532-1.148-0.799-2.016-0.799h-1.379v-2.604h1.379c0.771,0,1.365-0.228,1.781-0.686
				c0.416-0.455,0.625-1.101,0.625-1.934v-0.604c0-0.771-0.223-1.365-0.666-1.785c-0.441-0.42-1.072-0.632-1.885-0.632
				c-0.691,0-1.275,0.195-1.752,0.584c-0.482,0.39-0.809,1.005-0.99,1.847h-2.777c0.275-1.611,0.898-2.858,1.857-3.739
				c0.961-0.883,2.182-1.323,3.662-1.323c1.68,0,2.982,0.442,3.904,1.33c0.922,0.887,1.383,2.135,1.383,3.745v0.323
				c0,0.975-0.264,1.823-0.791,2.544c-0.529,0.721-1.277,1.251-2.24,1.593c1.063,0.223,1.891,0.744,2.475,1.563
				c0.586,0.82,0.881,1.86,0.881,3.122V40.6c0,1.709-0.488,3.033-1.463,3.974C310.561,45.514,309.184,45.984,307.404,45.984z"/>
		</g>
	</g>
</g>
</svg>
