<?xml version="1.0" encoding="UTF-8"?>
<svg id="_レイヤー_1" data-name="レイヤー_1" xmlns="http://www.w3.org/2000/svg" version="1.1" viewBox="0 0 30 30">
  <!-- Generator: Adobe Illustrator 30.2.1, SVG Export Plug-In . SVG Version: 2.1.1 Build 1)  -->
  <rect width="30" height="30" fill="#afafb0"/>
  <rect x="1.25" y="1.5" width="27" height="1.5" fill="#fff"/>
  <rect x="1.25" y="8.328" width="27" height="1.5" fill="#fff"/>
  <rect x="1.25" y="15.155" width="27" height="1.5" fill="#fff"/>
  <g>
    <polygon points="4.054 26.397 2.836 22.049 1.25 22.049 1.25 28.5 2.344 28.5 2.344 24.005 3.522 27.781 4.585 27.781 5.763 23.919 5.763 28.5 6.857 28.5 6.857 22.049 5.271 22.049 4.054 26.397" fill="#fff"/>
    <polygon points="9.809 22.049 9.374 22.049 9.374 28.5 9.809 28.5 10.578 28.5 13.654 28.5 13.654 27.329 10.578 27.329 10.578 25.882 13.171 25.882 13.171 24.711 10.578 24.711 10.578 23.221 13.654 23.221 13.654 22.049 10.578 22.049 9.809 22.049" fill="#fff"/>
    <polygon points="19.915 26.777 17.643 22.054 16.171 22.054 16.171 28.5 17.322 28.5 17.322 23.85 19.585 28.5 21.066 28.5 21.066 22.054 19.915 22.054 19.915 26.777" fill="#fff"/>
    <path d="M27.046,21.983v4.148c0,.37-.098.657-.297.861-.197.204-.476.306-.837.306-.358,0-.635-.102-.831-.306s-.294-.491-.294-.861v-4.148h-1.204v4.117c0,.763.203,1.354.608,1.773.406.418.98.627,1.721.627s1.32-.209,1.727-.627c.407-.419.611-1.01.611-1.773v-4.117h-1.204Z" fill="#fff"/>
  </g>
</svg>