<?xml version="1.0" encoding="utf-8"?>
<!-- Generator: Adobe Illustrator 16.0.3, SVG Export Plug-In . SVG Version: 6.00 Build 0)  -->
<!DOCTYPE svg PUBLIC "-//W3C//DTD SVG 1.1//EN" "http://www.w3.org/Graphics/SVG/1.1/DTD/svg11.dtd">
<svg version="1.1" xmlns="http://www.w3.org/2000/svg" xmlns:xlink="http://www.w3.org/1999/xlink" x="0px" y="0px" width="151px"
	 height="70px" viewBox="0 0 151 70" enable-background="new 0 0 151 70" xml:space="preserve">
<g id="ガイド-コンテンツ幅" display="none">
</g>
<g id="背景-_x23_fff" display="none">
	<rect x="-340" y="-202" display="inline" width="1280" height="2090"/>
</g>
<g id="ナビゲーション" display="none">
	<rect x="-177" y="-9" display="inline" fill="#FF8F70" width="970" height="94"/>
</g>
<g id="ヘッダー">
	<g>
		<g>
			<rect fill="none" width="151" height="70"/>
			<line fill="#FFFFFF" x1="1" y1="70" x2="0" y2="70"/>
			<line fill="#FFFFFF" x1="0" y1="0" x2="1" y2="0"/>
			<rect x="150" fill="#FFFFFF" width="1" height="70"/>
		</g>
		<g>
			<path fill="#FFFFFF" d="M52.93,40.571l3.936-10.678h1.278l3.936,10.678h-1.615l-2.959-8.614l-2.96,8.614H52.93z M54.744,38.229
				v-1.425h5.618v1.425H54.744z"/>
			<path fill="#FFFFFF" d="M63.696,40.571V29.894h1.49v10.678H63.696z M64.577,40.571v-1.388h2.894c0.793,0,1.355-0.151,1.686-0.455
				s0.496-0.703,0.496-1.197v-0.022c0-0.529-0.142-0.951-0.423-1.267s-0.745-0.474-1.392-0.474h-3.261v-1.352h3.261
				c0.554,0,0.971-0.131,1.252-0.393c0.282-0.262,0.423-0.645,0.423-1.149c0-0.534-0.157-0.933-0.471-1.197
				c-0.313-0.265-0.783-0.397-1.409-0.397h-3.056v-1.388h3.327c1.053,0,1.836,0.262,2.35,0.786c0.515,0.524,0.771,1.227,0.771,2.108
				c0,0.534-0.157,1.022-0.47,1.465c-0.313,0.443-0.806,0.726-1.477,0.848c0.661,0.098,1.174,0.389,1.538,0.874
				c0.365,0.485,0.548,1.041,0.548,1.667v0.022c0,0.872-0.282,1.574-0.845,2.108c-0.563,0.534-1.327,0.8-2.291,0.8H64.577z"/>
			<path fill="#FFFFFF" d="M76.936,40.682c-0.754,0-1.412-0.163-1.975-0.489c-0.563-0.325-1-0.784-1.312-1.377
				c-0.311-0.592-0.466-1.282-0.466-2.071V33.72c0-0.793,0.155-1.485,0.466-2.075c0.312-0.59,0.748-1.048,1.312-1.374
				c0.563-0.325,1.221-0.488,1.975-0.488s1.413,0.163,1.976,0.488c0.563,0.326,1,0.784,1.312,1.374
				c0.311,0.59,0.466,1.281,0.466,2.075v3.025c0,0.789-0.155,1.479-0.466,2.071c-0.312,0.593-0.748,1.052-1.312,1.377
				C78.349,40.519,77.69,40.682,76.936,40.682z M76.936,39.206c0.671,0,1.209-0.221,1.612-0.661c0.404-0.44,0.606-1.023,0.606-1.748
				v-3.128c0-0.729-0.202-1.313-0.606-1.751c-0.403-0.438-0.941-0.657-1.612-0.657c-0.665,0-1.201,0.219-1.607,0.657
				c-0.407,0.438-0.61,1.022-0.61,1.751v3.128c0,0.725,0.203,1.308,0.61,1.748C75.735,38.985,76.271,39.206,76.936,39.206z"/>
			<path fill="#FFFFFF" d="M86.711,40.682c-1.19,0-2.111-0.347-2.766-1.04c-0.653-0.692-0.98-1.67-0.98-2.934v-6.815h1.499v6.866
				c0,0.778,0.195,1.381,0.587,1.807s0.945,0.639,1.66,0.639c0.72,0,1.276-0.213,1.67-0.639c0.395-0.426,0.592-1.028,0.592-1.807
				v-6.866h1.498v6.815c0,1.263-0.328,2.241-0.984,2.934C88.831,40.335,87.906,40.682,86.711,40.682z"/>
			<path fill="#FFFFFF" d="M91.5,31.318v-1.425h7.534v1.425H91.5z M94.518,40.571v-9.804h1.498v9.804H94.518z"/>
		</g>
	</g>
</g>
</svg>
