<?xml version="1.0" encoding="utf-8"?>
<!-- Generator: Adobe Illustrator 16.0.3, SVG Export Plug-In . SVG Version: 6.00 Build 0)  -->
<!DOCTYPE svg PUBLIC "-//W3C//DTD SVG 1.1//EN" "http://www.w3.org/Graphics/SVG/1.1/DTD/svg11.dtd">
<svg version="1.1" xmlns="http://www.w3.org/2000/svg" xmlns:xlink="http://www.w3.org/1999/xlink" x="0px" y="0px" width="151px"
	 height="70px" viewBox="0 0 151 70" enable-background="new 0 0 151 70" xml:space="preserve">
<g id="ガイド-コンテンツ幅" display="none">
</g>
<g id="背景-_x23_fff" display="none">
	<rect x="-958" y="-202" display="inline" width="1280" height="2090"/>
</g>
<g id="ナビゲーション" display="none">
	<rect x="-795" y="-9" display="inline" fill="#FF8F70" width="970" height="94"/>
</g>
<g id="ヘッダー">
	<g>
		<g>
			<path fill="#FFFFFF" d="M48.639,40.682c-0.744,0-1.396-0.166-1.953-0.496c-0.558-0.33-0.991-0.794-1.3-1.392
				c-0.309-0.597-0.463-1.295-0.463-2.093v-2.93c0-0.803,0.154-1.503,0.463-2.1c0.309-0.598,0.742-1.062,1.3-1.392
				c0.558-0.33,1.209-0.496,1.953-0.496c0.617,0,1.181,0.132,1.692,0.396c0.512,0.265,0.94,0.634,1.285,1.109
				c0.346,0.475,0.58,1.031,0.701,1.667h-1.534c-0.093-0.343-0.249-0.643-0.466-0.9c-0.219-0.257-0.475-0.457-0.768-0.599
				c-0.294-0.142-0.598-0.213-0.911-0.213c-0.655,0-1.184,0.231-1.583,0.694c-0.398,0.463-0.598,1.074-0.598,1.833v2.93
				c0,0.759,0.199,1.369,0.598,1.829c0.399,0.46,0.928,0.69,1.583,0.69c0.466,0,0.903-0.147,1.314-0.441
				c0.411-0.293,0.688-0.717,0.83-1.271h1.534c-0.121,0.637-0.357,1.192-0.705,1.667c-0.348,0.475-0.775,0.845-1.285,1.109
				C49.819,40.549,49.256,40.682,48.639,40.682z"/>
			<path fill="#FFFFFF" d="M57.979,40.682c-0.754,0-1.412-0.163-1.975-0.489c-0.563-0.325-1-0.784-1.311-1.377
				c-0.312-0.592-0.467-1.282-0.467-2.071V33.72c0-0.793,0.155-1.485,0.467-2.075c0.311-0.59,0.748-1.048,1.311-1.374
				c0.563-0.325,1.221-0.488,1.975-0.488s1.413,0.163,1.977,0.488c0.563,0.326,1,0.784,1.311,1.374s0.467,1.281,0.467,2.075v3.025
				c0,0.789-0.156,1.479-0.467,2.071c-0.311,0.593-0.748,1.052-1.311,1.377C59.393,40.519,58.733,40.682,57.979,40.682z
				 M57.979,39.206c0.672,0,1.209-0.221,1.613-0.661c0.403-0.44,0.605-1.023,0.605-1.748v-3.128c0-0.729-0.202-1.313-0.605-1.751
				c-0.404-0.438-0.941-0.657-1.613-0.657c-0.665,0-1.201,0.219-1.607,0.657c-0.406,0.438-0.609,1.022-0.609,1.751v3.128
				c0,0.725,0.203,1.308,0.609,1.748S57.314,39.206,57.979,39.206z"/>
			<path fill="#FFFFFF" d="M64.156,40.564v-10.67h1.358l5.222,8.254l-0.177,0.191v-8.445h1.484v10.67h-1.373l-5.207-8.129
				l0.176-0.191v8.32H64.156z"/>
			<path fill="#FFFFFF" d="M73.218,31.318v-1.425h7.535v1.425H73.218z M76.237,40.571v-9.804h1.498v9.804H76.237z"/>
			<path fill="#FFFFFF" d="M80.899,40.571l3.937-10.678h1.278l3.936,10.678h-1.615l-2.959-8.614l-2.961,8.614H80.899z
				 M82.714,38.229v-1.425h5.617v1.425H82.714z"/>
			<path fill="#FFFFFF" d="M95.161,40.682c-0.744,0-1.395-0.166-1.953-0.496c-0.559-0.33-0.992-0.794-1.3-1.392
				c-0.309-0.597-0.463-1.295-0.463-2.093v-2.93c0-0.803,0.154-1.503,0.463-2.1c0.308-0.598,0.741-1.062,1.3-1.392
				c0.559-0.33,1.209-0.496,1.953-0.496c0.617,0,1.182,0.132,1.693,0.396c0.512,0.265,0.939,0.634,1.285,1.109
				c0.345,0.475,0.578,1.031,0.701,1.667h-1.535c-0.094-0.343-0.248-0.643-0.467-0.9c-0.217-0.257-0.473-0.457-0.768-0.599
				c-0.293-0.142-0.597-0.213-0.91-0.213c-0.656,0-1.184,0.231-1.582,0.694c-0.399,0.463-0.6,1.074-0.6,1.833v2.93
				c0,0.759,0.2,1.369,0.6,1.829c0.398,0.46,0.926,0.69,1.582,0.69c0.465,0,0.903-0.147,1.314-0.441
				c0.412-0.293,0.688-0.717,0.83-1.271h1.535c-0.123,0.637-0.357,1.192-0.705,1.667c-0.348,0.475-0.776,0.845-1.285,1.109
				C96.341,40.549,95.778,40.682,95.161,40.682z"/>
			<path fill="#FFFFFF" d="M99.501,31.318v-1.425h7.535v1.425H99.501z M102.521,40.571v-9.804h1.498v9.804H102.521z"/>
		</g>
		<g>
			<rect fill="none" width="151" height="70"/>
			<line fill="#FFFFFF" x1="1" y1="70" x2="0" y2="70"/>
			<line fill="#FFFFFF" x1="0" y1="0" x2="1" y2="0"/>
			<rect x="150" fill="#FFFFFF" width="1" height="70"/>
		</g>
	</g>
</g>
</svg>
