<?xml version="1.0" encoding="utf-8"?>
<!-- Generator: Adobe Illustrator 16.0.3, SVG Export Plug-In . SVG Version: 6.00 Build 0)  -->
<!DOCTYPE svg PUBLIC "-//W3C//DTD SVG 1.1//EN" "http://www.w3.org/Graphics/SVG/1.1/DTD/svg11.dtd">
<svg version="1.1" xmlns="http://www.w3.org/2000/svg" xmlns:xlink="http://www.w3.org/1999/xlink" x="0px" y="0px" width="151px"
	 height="70px" viewBox="0 0 151 70" enable-background="new 0 0 151 70" xml:space="preserve">
<g id="ガイド-コンテンツ幅" display="none">
</g>
<g id="背景-_x23_fff" display="none">
	<rect x="-804" y="-202" display="inline" width="1280" height="2090"/>
</g>
<g id="ナビゲーション" display="none">
	<rect x="-641" y="-9" display="inline" fill="#FF8F70" width="970" height="94"/>
</g>
<g id="ヘッダー">
	<g>
		<g>
			<rect fill="none" width="151" height="70"/>
			<line fill="#FFFFFF" x1="1" y1="70" x2="0" y2="70"/>
			<line fill="#FFFFFF" x1="0" y1="0" x2="1" y2="0"/>
			<rect x="150" fill="#FFFFFF" width="1" height="70"/>
		</g>
		<g>
			<path fill="#FFFFFF" d="M56.275,40.375v-10.67h1.357l5.223,8.254l-0.178,0.191v-8.445h1.484v10.67h-1.373l-5.207-8.129
				l0.176-0.191v8.32H56.275z"/>
			<path fill="#FFFFFF" d="M66.805,40.382V29.704h1.498v10.678H66.805z M67.533,31.129v-1.425h6.131v1.425H67.533z M67.533,35.792
				v-1.425h5.324v1.425H67.533z M67.533,40.382v-1.425h6.131v1.425H67.533z"/>
			<path fill="#FFFFFF" d="M78.137,38.076l2.189-8.372h1.027l2.188,8.372l1.889-8.372h1.557l-2.607,10.678h-1.527l-1.969-7.461
				l-2.055,7.461h-1.529l-2.605-10.678h1.557L78.137,38.076z"/>
			<path fill="#FFFFFF" d="M91.738,40.492c-0.52,0-1.008-0.049-1.467-0.147c-0.457-0.098-0.885-0.245-1.285-0.441
				c-0.398-0.196-0.771-0.44-1.119-0.734l0.934-1.146c0.406,0.353,0.854,0.617,1.344,0.793c0.488,0.176,1.02,0.265,1.594,0.265
				c0.773,0,1.373-0.145,1.799-0.433c0.426-0.289,0.639-0.693,0.639-1.212V37.43c0-0.406-0.107-0.717-0.324-0.933
				c-0.215-0.215-0.498-0.376-0.848-0.481c-0.35-0.105-0.732-0.192-1.148-0.261c-0.402-0.068-0.807-0.149-1.217-0.243
				c-0.408-0.093-0.783-0.238-1.127-0.437c-0.342-0.198-0.617-0.483-0.826-0.856c-0.207-0.372-0.313-0.869-0.313-1.491v-0.007
				c0-0.994,0.332-1.764,0.992-2.31s1.594-0.819,2.799-0.819c0.572,0,1.133,0.092,1.682,0.275c0.547,0.184,1.082,0.464,1.6,0.841
				l-0.852,1.19c-0.406-0.304-0.811-0.529-1.215-0.676s-0.809-0.22-1.215-0.22c-0.73,0-1.297,0.146-1.701,0.437
				c-0.404,0.291-0.605,0.704-0.605,1.237v0.007c0,0.401,0.117,0.708,0.352,0.918c0.236,0.21,0.543,0.366,0.922,0.466
				c0.381,0.101,0.787,0.195,1.223,0.283c0.393,0.079,0.783,0.173,1.176,0.283c0.391,0.11,0.748,0.27,1.068,0.478
				s0.578,0.493,0.771,0.855s0.289,0.835,0.289,1.417V37.4c0,0.984-0.342,1.745-1.027,2.284S92.98,40.492,91.738,40.492z"/>
		</g>
	</g>
</g>
</svg>
