<?xml version="1.0" encoding="utf-8"?>
<!-- Generator: Adobe Illustrator 16.0.3, SVG Export Plug-In . SVG Version: 6.00 Build 0)  -->
<!DOCTYPE svg PUBLIC "-//W3C//DTD SVG 1.1//EN" "http://www.w3.org/Graphics/SVG/1.1/DTD/svg11.dtd">
<svg version="1.1" xmlns="http://www.w3.org/2000/svg" xmlns:xlink="http://www.w3.org/1999/xlink" x="0px" y="0px" width="151px"
	 height="70px" viewBox="0 0 151 70" enable-background="new 0 0 151 70" xml:space="preserve">
<g id="ガイド-コンテンツ幅" display="none">
</g>
<g id="背景-_x23_fff" display="none">
	<rect x="-649" y="-202" display="inline" width="1280" height="2090"/>
</g>
<g id="ナビゲーション" display="none">
	<rect x="-486" y="-9" display="inline" fill="#FF8F70" width="970" height="94"/>
</g>
<g id="ヘッダー">
	<g>
		<g>
			<rect fill="none" width="151" height="70"/>
			<line fill="#FFFFFF" x1="1" y1="70" x2="0" y2="70"/>
			<line fill="#FFFFFF" x1="0" y1="0" x2="1" y2="0"/>
			<rect x="150" fill="#FFFFFF" width="1" height="70"/>
		</g>
		<g>
			<path fill="#FFFFFF" d="M32.612,34.319h3.701v1.865c0,0.803-0.154,1.505-0.466,2.104s-0.745,1.064-1.304,1.395
				c-0.559,0.331-1.214,0.496-1.968,0.496c-0.759,0-1.423-0.155-1.99-0.466c-0.567-0.312-1.009-0.75-1.321-1.315
				c-0.314-0.565-0.471-1.225-0.471-1.979v-3.15c0-0.803,0.155-1.503,0.467-2.101c0.311-0.598,0.745-1.062,1.303-1.392
				c0.559-0.33,1.215-0.496,1.969-0.496c0.621,0,1.188,0.133,1.699,0.396c0.512,0.265,0.941,0.635,1.289,1.109
				s0.583,1.03,0.705,1.667h-1.623c-0.137-0.553-0.404-0.977-0.801-1.271s-0.819-0.44-1.27-0.44c-0.666,0-1.199,0.231-1.602,0.693
				c-0.401,0.463-0.602,1.074-0.602,1.833v3.15c0,0.695,0.205,1.252,0.617,1.671c0.41,0.418,0.954,0.628,1.63,0.628
				c0.665,0,1.199-0.221,1.601-0.661s0.603-1.056,0.603-1.844v-0.463h-2.167V34.319z"/>
			<path fill="#FFFFFF" d="M42.27,40.18c-0.754,0-1.412-0.163-1.976-0.488c-0.563-0.325-1-0.784-1.311-1.377
				s-0.467-1.282-0.467-2.071v-3.025c0-0.793,0.156-1.484,0.467-2.074s0.748-1.048,1.311-1.374c0.563-0.325,1.222-0.488,1.976-0.488
				s1.413,0.163,1.976,0.488c0.563,0.326,1,0.784,1.311,1.374s0.467,1.281,0.467,2.074v3.025c0,0.789-0.156,1.479-0.467,2.071
				s-0.748,1.052-1.311,1.377S43.023,40.18,42.27,40.18z M42.27,38.704c0.671,0,1.208-0.221,1.612-0.661s0.605-1.023,0.605-1.748
				v-3.129c0-0.729-0.201-1.313-0.605-1.751s-0.941-0.657-1.612-0.657c-0.665,0-1.202,0.219-1.608,0.657s-0.609,1.022-0.609,1.751
				v3.129c0,0.725,0.203,1.308,0.609,1.748S41.604,38.704,42.27,38.704z"/>
			<path fill="#FFFFFF" d="M51.978,40.18c-0.754,0-1.412-0.163-1.975-0.488s-1-0.784-1.311-1.377
				c-0.312-0.593-0.467-1.282-0.467-2.071v-3.025c0-0.793,0.155-1.484,0.467-2.074c0.311-0.59,0.748-1.048,1.311-1.374
				c0.563-0.325,1.221-0.488,1.975-0.488s1.413,0.163,1.977,0.488c0.563,0.326,1,0.784,1.311,1.374s0.467,1.281,0.467,2.074v3.025
				c0,0.789-0.156,1.479-0.467,2.071s-0.748,1.052-1.311,1.377C53.391,40.017,52.731,40.18,51.978,40.18z M51.978,38.704
				c0.672,0,1.209-0.221,1.613-0.661c0.403-0.44,0.605-1.023,0.605-1.748v-3.129c0-0.729-0.202-1.313-0.605-1.751
				c-0.404-0.438-0.941-0.657-1.613-0.657c-0.665,0-1.201,0.219-1.607,0.657s-0.609,1.022-0.609,1.751v3.129
				c0,0.725,0.203,1.308,0.609,1.748S51.313,38.704,51.978,38.704z"/>
			<path fill="#FFFFFF" d="M58.154,40.069V29.392h1.498v10.678H58.154z M59.168,40.069v-1.425h2.416
				c0.788,0,1.399-0.204,1.832-0.613c0.434-0.408,0.649-0.984,0.649-1.729v-3.143c0-0.744-0.216-1.32-0.649-1.729
				c-0.433-0.409-1.044-0.613-1.832-0.613h-2.416v-1.425h2.372c1.293,0,2.292,0.334,3,1.003c0.707,0.668,1.061,1.609,1.061,2.823
				v3.025c0,0.809-0.158,1.497-0.477,2.067s-0.781,1.006-1.389,1.308c-0.607,0.301-1.342,0.451-2.203,0.451H59.168z"/>
			<path fill="#FFFFFF" d="M71.233,40.18c-0.519,0-1.007-0.049-1.465-0.146c-0.457-0.099-0.887-0.245-1.285-0.441
				c-0.398-0.195-0.772-0.44-1.119-0.734l0.932-1.146c0.406,0.353,0.854,0.617,1.344,0.793c0.49,0.177,1.021,0.265,1.594,0.265
				c0.773,0,1.373-0.145,1.799-0.433c0.427-0.289,0.64-0.693,0.64-1.212v-0.008c0-0.406-0.108-0.717-0.323-0.933
				c-0.215-0.215-0.498-0.376-0.848-0.48c-0.351-0.105-0.734-0.192-1.15-0.261c-0.4-0.068-0.807-0.149-1.215-0.243
				c-0.408-0.093-0.785-0.238-1.127-0.437c-0.343-0.198-0.618-0.483-0.826-0.855c-0.209-0.372-0.313-0.869-0.313-1.491V32.41
				c0-0.994,0.33-1.764,0.992-2.31c0.66-0.546,1.593-0.819,2.797-0.819c0.573,0,1.134,0.092,1.682,0.275
				c0.549,0.184,1.082,0.464,1.602,0.841l-0.852,1.19c-0.406-0.304-0.813-0.529-1.216-0.676c-0.403-0.147-0.81-0.221-1.216-0.221
				c-0.729,0-1.296,0.146-1.699,0.438c-0.404,0.291-0.606,0.703-0.606,1.237v0.007c0,0.401,0.118,0.708,0.353,0.918
				c0.235,0.211,0.543,0.366,0.922,0.467s0.787,0.194,1.223,0.282c0.392,0.079,0.783,0.173,1.175,0.283s0.748,0.27,1.069,0.478
				c0.32,0.208,0.577,0.493,0.771,0.855s0.29,0.835,0.29,1.417v0.015c0,0.984-0.343,1.745-1.028,2.284
				C73.442,39.91,72.478,40.18,71.233,40.18z"/>
			<path fill="#FFFFFF" d="M80.288,35.377c-0.607,0-1.078,0.151-1.414,0.455c-0.335,0.304-0.502,0.732-0.502,1.285
				c0,0.544,0.177,0.966,0.532,1.267c0.354,0.302,0.855,0.452,1.501,0.452c0.926,0,1.643-0.365,2.152-1.095s0.764-1.757,0.764-3.084
				h1.425c0,1.17-0.184,2.166-0.551,2.989c-0.367,0.822-0.898,1.45-1.594,1.884c-0.695,0.433-1.537,0.649-2.526,0.649
				c-1.004,0-1.781-0.267-2.332-0.801c-0.551-0.533-0.826-1.287-0.826-2.262c0-0.876,0.242-1.576,0.725-2.101
				c0.481-0.523,1.158-0.824,2.029-0.902L80.288,35.377z M83.645,40.069l-4.068-4.244c-0.505-0.529-0.899-1.096-1.187-1.7
				c-0.286-0.604-0.43-1.232-0.43-1.884c0-0.936,0.25-1.658,0.75-2.17c0.499-0.512,1.204-0.768,2.114-0.768
				c0.905,0,1.607,0.246,2.104,0.738c0.496,0.492,0.745,1.188,0.745,2.089v0.147h-1.498v-0.147c0-0.436-0.118-0.772-0.353-1.01
				s-0.568-0.356-0.999-0.356s-0.767,0.129-1.006,0.386s-0.36,0.621-0.36,1.091c0,0.431,0.104,0.876,0.313,1.337
				c0.208,0.46,0.506,0.894,0.893,1.3l4.883,5.191H83.645z"/>
			<path fill="#FFFFFF" d="M90.584,40.18c-0.744,0-1.396-0.165-1.953-0.496c-0.558-0.33-0.991-0.794-1.3-1.392
				c-0.309-0.597-0.463-1.295-0.463-2.093v-2.93c0-0.803,0.154-1.503,0.463-2.101s0.742-1.062,1.3-1.392s1.209-0.496,1.953-0.496
				c0.617,0,1.181,0.133,1.692,0.396c0.512,0.265,0.94,0.635,1.285,1.109c0.346,0.475,0.58,1.03,0.701,1.667h-1.534
				c-0.093-0.343-0.249-0.643-0.466-0.899c-0.219-0.257-0.475-0.457-0.768-0.599c-0.294-0.142-0.598-0.213-0.911-0.213
				c-0.655,0-1.184,0.231-1.583,0.693c-0.398,0.463-0.598,1.074-0.598,1.833v2.93c0,0.759,0.199,1.369,0.598,1.829
				c0.399,0.46,0.928,0.69,1.583,0.69c0.466,0,0.903-0.147,1.314-0.441c0.411-0.293,0.688-0.717,0.83-1.271h1.534
				c-0.121,0.637-0.357,1.192-0.705,1.667c-0.348,0.476-0.775,0.845-1.285,1.109C91.765,40.048,91.201,40.18,90.584,40.18z"/>
			<path fill="#FFFFFF" d="M95.365,40.069l3.937-10.678h1.277l3.936,10.678h-1.615l-2.959-8.614l-2.96,8.614H95.365z M97.179,37.727
				v-1.425h5.618v1.425H97.179z"/>
			<path fill="#FFFFFF" d="M106.131,40.069V29.392h1.498v10.678H106.131z M106.865,30.816v-1.425h5.985v1.425H106.865z
				 M106.865,35.575V34.15h5.177v1.425H106.865z"/>
			<path fill="#FFFFFF" d="M114.54,40.069V29.392h1.498v10.678H114.54z M115.267,30.816v-1.425h6.133v1.425H115.267z
				 M115.267,35.479v-1.425h5.324v1.425H115.267z M115.267,40.069v-1.425h6.133v1.425H115.267z"/>
		</g>
	</g>
</g>
</svg>
