<?xml version="1.0" encoding="utf-8"?>
<!-- Generator: Adobe Illustrator 16.0.3, SVG Export Plug-In . SVG Version: 6.00 Build 0)  -->
<!DOCTYPE svg PUBLIC "-//W3C//DTD SVG 1.1//EN" "http://www.w3.org/Graphics/SVG/1.1/DTD/svg11.dtd">
<svg version="1.1" xmlns="http://www.w3.org/2000/svg" xmlns:xlink="http://www.w3.org/1999/xlink" x="0px" y="0px" width="151px"
	 height="70px" viewBox="0 0 151 70" enable-background="new 0 0 151 70" xml:space="preserve">
<g id="ガイド-コンテンツ幅" display="none">
</g>
<g id="背景-_x23_fff" display="none">
	<rect x="-185" y="-203" display="inline" width="1280" height="2090"/>
</g>
<g id="ナビゲーション" display="none">
	<rect x="-22" y="-10" display="inline" fill="#FF8F70" width="970" height="94"/>
</g>
<g id="ヘッダー">
	<g>
		<g>
			<rect fill="none" width="151" height="70"/>
			<rect fill="#FFFFFF" width="1" height="70"/>
			<rect x="150" fill="#FFFFFF" width="1" height="70"/>
		</g>
		<g>
			<path fill="#FFFFFF" d="M56.252,39.839V29.161h1.498v10.678H56.252z M57.185,35.293v-1.425h5.927v1.425H57.185z M62.317,39.839
				V29.161h1.498v10.678H62.317z"/>
			<path fill="#FFFFFF" d="M69.992,39.949c-0.754,0-1.412-0.163-1.976-0.489c-0.563-0.325-1-0.784-1.311-1.377
				c-0.312-0.592-0.467-1.282-0.467-2.071v-3.025c0-0.793,0.155-1.485,0.467-2.075c0.311-0.59,0.748-1.048,1.311-1.374
				c0.563-0.325,1.222-0.488,1.976-0.488s1.412,0.163,1.976,0.488c0.563,0.326,1,0.784,1.311,1.374s0.467,1.281,0.467,2.075v3.025
				c0,0.789-0.156,1.479-0.467,2.071c-0.311,0.593-0.748,1.052-1.311,1.377C71.404,39.786,70.746,39.949,69.992,39.949z
				 M69.992,38.473c0.671,0,1.208-0.221,1.612-0.661c0.403-0.44,0.605-1.023,0.605-1.748v-3.128c0-0.729-0.202-1.313-0.605-1.751
				c-0.404-0.438-0.941-0.657-1.612-0.657c-0.666,0-1.202,0.219-1.608,0.657c-0.406,0.438-0.609,1.022-0.609,1.751v3.128
				c0,0.725,0.203,1.308,0.609,1.748S69.326,38.473,69.992,38.473z"/>
			<path fill="#FFFFFF" d="M80.707,36.211l3.136-7.05h1.402v10.678h-1.461v-7.998l0.073,0.47l-2.629,6.044h-1.043l-2.629-5.897
				l0.073-0.617v7.998h-1.462V29.161h1.403L80.707,36.211z"/>
			<path fill="#FFFFFF" d="M87.889,39.839V29.161h1.498v10.678H87.889z M88.616,30.586v-1.425h6.132v1.425H88.616z M88.616,35.249
				v-1.425h5.324v1.425H88.616z M88.616,39.839v-1.425h6.132v1.425H88.616z"/>
		</g>
	</g>
</g>
</svg>
